<svg preserveAspectRatio="none" width="100%" height="100%" overflow="visible" style="display: block;" viewBox="0 0 32 32" fill="none" xmlns="http://www.w3.org/2000/svg">
<g id="splash-dex-logo" clip-path="url(#clip0_0_11)">
<path id="Union" d="M27.4116 6.32324C28.3583 7.91426 28.8501 9.49891 28.8501 11.2822L28.8482 14.1123L28.8657 15.5791C28.9343 19.1808 29.8628 22.8253 31.9644 26.1602L27.5669 23.1816L24.4556 27.4229L21.187 24.8379L15.9644 31.958L10.7407 24.8379L7.47219 27.4229L4.36086 23.1816L-0.035625 26.1602C2.06592 22.8254 2.99333 19.1808 3.06203 15.5791L3.07961 14.1123L3.07766 11.2822C3.07766 9.49883 3.56926 7.91413 4.51613 6.32324L4.81008 5.8584C5.38912 6.54265 6.1099 7.30907 6.92727 8.00195L6.67141 8.44727C6.17563 9.31217 6.01172 10.2795 6.39797 11.1992C6.64698 11.7915 7.10125 12.2997 7.68703 12.6875C8.2559 13.0641 8.92944 13.3178 9.6343 13.4512C10.0934 13.538 10.5612 13.5737 11.0259 13.5615C10.9175 14.0779 10.8707 14.6135 10.8677 15.1592L6.71926 17.1719L9.92043 18.6787C10.1762 18.7992 10.4193 18.9377 10.648 19.0918C13.2868 21.0819 14.8741 26.9688 15.9644 29.8447C17.0548 26.9688 18.6411 21.082 21.2798 19.0918C21.5085 18.9376 21.7525 18.7992 22.0083 18.6787L25.2085 17.1719L21.0611 15.1592C21.058 14.6135 21.0103 14.0779 20.9019 13.5615C21.3666 13.5737 21.8344 13.538 22.2935 13.4512C22.9983 13.3178 23.672 13.0641 24.2407 12.6875C24.8264 12.2997 25.2809 11.7915 25.5298 11.1992C25.9162 10.2795 25.7521 9.31231 25.2564 8.44727L25.0015 8.00195C25.8187 7.30919 26.5387 6.54164 27.1177 5.85742L27.4116 6.32324ZM15.9644 11.082C16.3849 11.0821 16.8111 11.2073 17.2017 11.457C18.2906 12.1544 19.0978 13.2649 18.9566 15.7764C18.9491 15.9102 18.993 16.0433 19.0806 16.1553C19.1682 16.2671 19.2958 16.3531 19.4448 16.4004L20.9868 17.1484C17.8372 18.6313 16.9815 21.3855 15.9644 24.0674C14.9474 21.3855 14.0905 18.6313 10.9409 17.1484L12.4839 16.4004C12.633 16.353 12.7606 16.2672 12.8482 16.1553C12.9358 16.0433 12.9787 15.9102 12.9712 15.7764C12.83 13.2651 13.6372 12.1544 14.7261 11.457C15.1167 11.2072 15.5437 11.082 15.9644 11.082ZM8.55324 9.20801C10.0375 10.1923 11.52 10.9113 12.6851 11.3994C11.8335 11.8035 10.8955 11.8922 10.0923 11.7402C9.66916 11.6604 9.28668 11.5122 8.98 11.3096C8.69695 11.1219 8.48113 10.8864 8.36672 10.6152C8.20559 10.2305 8.24023 9.75402 8.55324 9.20801ZM23.3755 9.20801C23.6884 9.75397 23.7223 10.2305 23.5611 10.6152C23.4468 10.8862 23.2317 11.122 22.9488 11.3096C22.6421 11.5123 22.2588 11.6604 21.8355 11.7402C21.0323 11.8922 20.0943 11.8035 19.2427 11.3994C20.408 10.9113 21.891 10.1924 23.3755 9.20801ZM15.9644 0C17.7473 0.0402489 19.5352 0.330875 21.0864 0.896484C22.1606 1.28868 23.1632 1.8073 24.0708 2.42676C24.4805 2.70633 24.8183 2.97618 25.19 3.28711C26.1927 3.31601 27.6581 2.38041 28.3384 1.50488C27.1675 4.72942 21.8237 8.53707 18.1245 9.99414C18.1233 9.99364 18.1226 9.99274 18.1216 9.99219C17.4579 9.56645 16.711 9.35359 15.9644 9.35352C15.2178 9.35352 14.4709 9.56658 13.8071 9.99219C13.8061 9.99269 13.8046 9.99368 13.8032 9.99414C10.1039 8.53707 4.7603 4.72942 3.58938 1.50488C4.26963 2.38051 5.736 3.31623 6.73879 3.28711C7.11057 2.97632 7.4483 2.70634 7.85793 2.42676C8.76558 1.80727 9.76807 1.28868 10.8423 0.896484C12.3937 0.330922 14.1815 0.04021 15.9644 0Z" fill="var(--fill-0, white)"/>
</g>
<defs>
<clipPath id="clip0_0_11">
<rect width="32" height="32" fill="white"/>
</clipPath>
</defs>
</svg>
